<?xml version="1.0" standalone="no"?><!DOCTYPE svg PUBLIC "-//W3C//DTD SVG 1.1//EN" "http://www.w3.org/Graphics/SVG/1.1/DTD/svg11.dtd"><svg class="icon" style="width: 5em; height: 5em;vertical-align: middle;fill: currentColor;overflow: hidden;" viewBox="0 0 1024 1024" version="1.1" xmlns="http://www.w3.org/2000/svg"><path d="M512 932.352c0 0-332.864-398.656-332.864-582.528C179.2 166.016 328.128 17.024 512 17.024c183.872 0 332.864 149.056 332.864 332.864C844.864 533.696 512 932.352 512 932.352L512 932.352zM512 58.624c-160.832 0-291.264 130.432-291.264 291.264S512 870.016 512 870.016s291.2-359.296 291.2-520.128S672.896 58.624 512 58.624L512 58.624zM512 537.152c-103.424 0-187.264-83.84-187.264-187.264 0-103.424 83.84-187.2 187.264-187.2 103.36 0 187.136 83.84 187.136 187.2C699.2 453.312 615.36 537.152 512 537.152L512 537.152zM512 204.224c-80.448 0-145.664 65.216-145.664 145.6S431.616 495.488 512 495.488c80.448 0 145.6-65.216 145.6-145.6S592.512 204.224 512 204.224L512 204.224zM364.928 799.04c9.088 12.48 18.048 24.512 26.56 35.968-88.768 10.176-149.888 31.36-149.888 55.744 0 34.56 121.088 62.464 270.464 62.464 149.312 0 270.4-27.904 270.4-62.464 0-24.384-61.056-45.568-149.952-55.744 8.64-11.456 17.472-23.424 26.624-35.968 98.176 17.536 164.928 52.032 164.928 91.712 0 57.472-139.712 104.064-312 104.064s-312.064-46.592-312.064-104.064C199.936 851.072 266.752 816.64 364.928 799.04L364.928 799.04z" /></svg>